<svg id="Laag_1" data-name="Laag 1" xmlns="http://www.w3.org/2000/svg" viewBox="0 0 527.99 65.05"><defs><style>.cls-1{fill:#2f2f2f;}.cls-2{fill:#ff9f1c;}</style></defs><title>codekings_logo_zwart</title><path class="cls-1" d="M335.85,273h-6.29q-2,0-2-1.3V209.26q0-1.29,2-1.3h6.29q2,0,2,1.3v62.46Q337.8,273,335.85,273Zm28.5-64.12h6.29a1.38,1.38,0,0,1,1.32.57c.21.38.1.86-.31,1.45l-18.48,28.67v.5L373.52,271a1.33,1.33,0,0,1,.13,1.45,1.54,1.54,0,0,1-1.38.57h-5.91a3.88,3.88,0,0,1-3.52-1.76l-19.36-29.92a2.5,2.5,0,0,1,0-2.64l17.85-28.16A3,3,0,0,1,364.35,208.9Z" transform="translate(-57.01 -207.96)"/><path class="cls-1" d="M389.89,210.3v61a1.51,1.51,0,0,1-1.7,1.7h-6.31a1.5,1.5,0,0,1-1.7-1.7v-61a1.51,1.51,0,0,1,1.7-1.7h6.31A1.51,1.51,0,0,1,389.89,210.3Z" transform="translate(-57.01 -207.96)"/><path class="cls-1" d="M408.6,273h-6.21a1.5,1.5,0,0,1-1.7-1.7v-61a1.5,1.5,0,0,1,1.7-1.7H408a2.29,2.29,0,0,1,2.2,1.1l24.25,43.58h.4v-43a1.51,1.51,0,0,1,1.7-1.7h6.21a1.51,1.51,0,0,1,1.7,1.7v61a1.51,1.51,0,0,1-1.7,1.7h-5.41a3,3,0,0,1-2.61-1.6l-24-43.08h-.4v43A1.51,1.51,0,0,1,408.6,273Z" transform="translate(-57.01 -207.96)"/><path class="cls-1" d="M481.24,273H470.52q-7.42,0-11.47-4.11T455,257.49V224.13q0-7.41,4.06-11.47t11.47-4.06h10.72q7.41,0,11.47,4.06t4.06,11.47v3.61q0,1.8-1.7,1.8h-6.31q-1.7,0-1.7-1.8v-3.21q0-7.41-7.21-7.41h-7.91q-7.21,0-7.21,7.41v32.56q0,7.42,7.21,7.41h7.91q7.21,0,7.21-7.41v-9q0-1-1.1-1h-8.12a1.5,1.5,0,0,1-1.7-1.7v-5.11a1.51,1.51,0,0,1,1.7-1.7h16.83a1.86,1.86,0,0,1,2.1,2.1v16.83q0,7.31-4.11,11.42T481.24,273Z" transform="translate(-57.01 -207.96)"/><path class="cls-1" d="M506.08,257.39v-2.61a1.51,1.51,0,0,1,1.7-1.7h6.41a1.51,1.51,0,0,1,1.7,1.7v1.8q0,4.21,1.85,6.06t6.16,1.85h6.91q4.31,0,6.21-2t1.9-6.36v-2.3a6,6,0,0,0-2.45-5.06,13.19,13.19,0,0,0-6.06-2.4q-3.61-.55-7.91-1.55a69.64,69.64,0,0,1-7.92-2.3,12.39,12.39,0,0,1-6.06-4.91,16,16,0,0,1-2.45-9.22v-4.21q0-7.31,4.16-11.47t11.47-4.16h10.62q7.41,0,11.57,4.16t4.16,11.47v2.2a1.5,1.5,0,0,1-1.7,1.7h-6.41a1.5,1.5,0,0,1-1.7-1.7v-1.3q0-4.31-1.85-6.16t-6.16-1.85h-6.31q-4.31,0-6.16,2t-1.85,6.66v3.1q0,4.51,6.51,6.11,2.9.7,6.36,1.2a53.39,53.39,0,0,1,7,1.5,29.11,29.11,0,0,1,6.41,2.66,12.25,12.25,0,0,1,4.71,5,17.06,17.06,0,0,1,1.8,8.17v3.91q0,7.31-4.16,11.47T533,273H521.81q-7.31,0-11.52-4.16T506.08,257.39Z" transform="translate(-57.01 -207.96)"/><path class="cls-2" d="M119.54,272.68H107.86q-7.45,0-11.52-4.13t-4.08-11.47V223.56q0-7.45,4.08-11.52T107.86,208h11.67q7.35,0,11.47,4.08t4.13,11.52v4.83a1.6,1.6,0,0,1-1.81,1.81H127q-1.71,0-1.71-1.81V224q0-7.45-7.25-7.45h-8.76q-7.25,0-7.25,7.45v32.71q0,7.45,7.25,7.45H118q7.25,0,7.25-7.45v-4.43q0-1.81,1.71-1.81h6.34a1.6,1.6,0,0,1,1.81,1.81v4.83q0,7.35-4.13,11.47T119.54,272.68Z" transform="translate(-57.01 -207.96)"/><path class="cls-2" d="M170.76,272.68H159.09q-7.45,0-11.52-4.13t-4.08-11.47V223.56q0-7.45,4.08-11.52T159.09,208h11.67q7.45,0,11.57,4.08t4.13,11.52v33.52q0,7.35-4.13,11.47T170.76,272.68Zm-10.27-8.55h8.76q7.35,0,7.35-7.45V224q0-7.45-7.35-7.45H160.5q-7.25,0-7.25,7.45v32.71Q153.25,264.13,160.5,264.12Z" transform="translate(-57.01 -207.96)"/><path class="cls-2" d="M196.93,271V209.68a1.51,1.51,0,0,1,1.71-1.71H223.4q7.35,0,11.52,4.08t4.18,11.52v33.52q0,7.35-4.18,11.47t-11.52,4.13H198.64A1.51,1.51,0,0,1,196.93,271Zm10.87-6.84H222q7.25,0,7.25-7.45V224q0-7.45-7.25-7.45H207.8q-1.11,0-1.11,1V263A1,1,0,0,0,207.8,264.12Z" transform="translate(-57.01 -207.96)"/><path class="cls-2" d="M283.58,272.68H251.38a1.51,1.51,0,0,1-1.71-1.71V209.68a1.51,1.51,0,0,1,1.71-1.71h32.21q1.61,0,1.61,1.71v5.13q0,1.71-1.61,1.71H260.64q-1.21,0-1.21,1v17q0,1,1.21,1h19.42q1.81,0,1.81,1.71v5.13q0,1.71-1.81,1.71H260.64q-1.21,0-1.21,1V263q0,1.11,1.21,1.11h22.95q1.61,0,1.61,1.71V271Q285.19,272.68,283.58,272.68Z" transform="translate(-57.01 -207.96)"/><path class="cls-2" d="M78.26,208.9h6.29a1.38,1.38,0,0,1,1.32.57c.21.38.1.86-.31,1.45L67.07,239.58v.5L87.44,271a1.33,1.33,0,0,1,.13,1.45,1.54,1.54,0,0,1-1.38.57H80.27a3.88,3.88,0,0,1-3.52-1.76L57.39,241.34a2.5,2.5,0,0,1,0-2.64l17.85-28.16A3,3,0,0,1,78.26,208.9Z" transform="translate(-57.01 -207.96)"/><path class="cls-2" d="M304,210.53l17.85,28.16a2.5,2.5,0,0,1,0,2.64L302.5,271.26A3.88,3.88,0,0,1,299,273h-5.91a1.54,1.54,0,0,1-1.38-.57,1.33,1.33,0,0,1,.13-1.45l20.37-30.93v-.5L293.7,210.91c-.42-.59-.52-1.07-.31-1.45a1.38,1.38,0,0,1,1.32-.57H301A3,3,0,0,1,304,210.53Z" transform="translate(-57.01 -207.96)"/><path class="cls-2" d="M566.77,210.53l17.85,28.16a2.5,2.5,0,0,1,0,2.64l-19.36,29.92a3.88,3.88,0,0,1-3.52,1.76h-5.91a1.54,1.54,0,0,1-1.38-.57,1.33,1.33,0,0,1,.13-1.45l20.37-30.93v-.5l-18.48-28.67c-.42-.59-.52-1.07-.31-1.45a1.38,1.38,0,0,1,1.32-.57h6.29A3,3,0,0,1,566.77,210.53Z" transform="translate(-57.01 -207.96)"/></svg>